# xmcd
#
# Track frame offsets:
# 150
# 4655
# 6147
# 23610
# 41627
# 62520
# 81997
# 99110
# 113990
# 133587
# 150647
# 168055
# 189015
# 208170
#
# Disc length: 3084 seconds
#
#
# Revision: 0
# Processed by: cddbd v1.5.1PL2 Copyright (c) Steve Scherf et al.
# Submitted via: FreeRIP 2.945 
#
DISCID=9d0c0a0e
DTITLE=Wilson Simoninha - Wilson Simoninha
DYEAR=2005
DGENRE=R&B
TTITLE0=Vinheta Abertura
TTITLE1=Mas Que Nada
TTITLE2=Rebete VãoBora
TTITLE3=è Isso Que Dá
TTITLE4=Musica Romântica
TTITLE5=Agosto
TTITLE6=NaNã Rap Camorra
TTITLE7=Aquele Gol
TTITLE8=Lua Clara
TTITLE9=Ter Você
TTITLE10=Vou Buscar
TTITLE11=Orgulho
TTITLE12=Flor Do Futuro
TTITLE13=Eu e a Brisa
EXTD=Òtimo Album - Melhor cantor de 2000 APCA. Assosciação Paulista Dos Críticos De Arte. \nIncluindo è isso Ai \n Flor Do Futuro \n TEr Vc\nBebete;\n\n Tá Esperando O quê. \n 
EXTT0=
EXTT1=
EXTT2=
EXTT3=
EXTT4=
EXTT5=
EXTT6=
EXTT7=
EXTT8=
EXTT9=
EXTT10=
EXTT11=
EXTT12=
EXTT13=
PLAYORDER=
